<svg xmlns="http://www.w3.org/2000/svg" width="41" height="40" fill="none"><g clip-path="url(#a)"><ellipse cx="20.451" cy="18.681" rx="18.618" ry="18.505" transform="rotate(-.546 20.451 18.681)" fill="url(#b)"/><path fill-rule="evenodd" clip-rule="evenodd" d="M2.104 15.52C3.118 9.677 6.891 4.76 12.052 2.163v2.135L2.104 15.52z" fill="url(#c)" style="mix-blend-mode:lighten"/><path fill-rule="evenodd" clip-rule="evenodd" d="M22.886.333c8.894 1.154 15.837 8.556 16.17 17.664L22.81 2.071V.34l.077-.008z" fill="url(#d)" style="mix-blend-mode:multiply" opacity=".5"/><ellipse cx="20.452" cy="20.238" rx="19.115" ry="18.47" transform="rotate(-.546 20.452 20.238)" fill="url(#e)"/><path fill-rule="evenodd" clip-rule="evenodd" d="M35.243 31.928c2.739-3.23 4.366-7.371 4.323-11.872-.098-10.2-8.734-18.388-19.29-18.287-10.557.1-19.036 8.45-18.938 18.651.014 1.468.205 2.895.553 4.26a17.938 17.938 0 0 1-.503-4.057c-.097-10.172 8.333-18.5 18.829-18.6 10.495-.1 19.082 8.065 19.18 18.238.041 4.409-1.518 8.471-4.154 11.667z" fill="url(#f)" style="mix-blend-mode:color-dodge" opacity=".5"/><ellipse cx="20.399" cy="20.29" rx="13.915" ry="13.446" transform="rotate(-.546 20.4 20.29)" fill="url(#g)"/><path fill-rule="evenodd" clip-rule="evenodd" d="M20.259 33.735c-7.563-.066-13.704-5.974-13.774-13.312-.071-7.426 6.101-13.505 13.786-13.578h.012-.269c-7.684.073-13.857 6.152-13.786 13.578.07 7.421 6.351 13.379 14.03 13.312z" fill="url(#h)" style="mix-blend-mode:color-dodge"/><path fill-rule="evenodd" clip-rule="evenodd" d="M20.527 33.735c7.685-.073 13.857-6.152 13.786-13.578-.07-7.339-6.212-13.246-13.774-13.312 7.68-.067 13.96 5.89 14.03 13.312.072 7.426-6.1 13.505-13.786 13.578h-.268.012z" fill="url(#i)" style="mix-blend-mode:color-dodge"/><path fill-rule="evenodd" clip-rule="evenodd" d="M20.52 32.109c7.278-.07 13.12-6.141 13.05-13.561a13.658 13.658 0 0 0-.735-4.304c-2.31-4.432-7.081-7.452-12.564-7.4-5.441.053-10.123 3.115-12.37 7.534a13.654 13.654 0 0 0-.685 4.421c.07 7.42 6.027 13.379 13.305 13.31z" fill="url(#j)"/><g style="mix-blend-mode:multiply" filter="url(#k)"><path fill-rule="evenodd" clip-rule="evenodd" d="M33.57 18.602c-.042 7.323-5.841 13.28-13.05 13.348-7.277.07-13.233-5.889-13.304-13.309a13.99 13.99 0 0 1 0 .158c.07 7.42 6.027 13.379 13.305 13.31 7.26-.07 13.09-6.112 13.049-13.507z" fill="url(#l)"/></g><g style="mix-blend-mode:multiply" filter="url(#m)"><path fill-rule="evenodd" clip-rule="evenodd" d="M18.368 31.95c-12.823-6.12-9.85-20.7-2.258-24.452-3.605 1.13-6.562 3.64-8.208 6.88a13.653 13.653 0 0 0-.686 4.422c.064 6.673 4.888 12.164 11.152 13.152z" fill="url(#n)"/></g><ellipse cx="14.488" cy="30.956" rx="9.532" ry="6.356" transform="rotate(27.655 14.488 30.956)" fill="url(#o)" style="mix-blend-mode:lighten"/><ellipse cx="27.543" cy="5.867" rx="8.172" ry="2.301" transform="rotate(-156.122 27.543 5.867)" fill="url(#p)" style="mix-blend-mode:lighten" opacity=".5"/><path style="mix-blend-mode:screen" d="M33.844 22.448c.11 1.699.466 2.263.797 1.261.33-1.002.508-3.191.399-4.89-.11-1.698-.467-2.262-.797-1.26s-.509 3.191-.4 4.89z" fill="url(#q)"/><path style="mix-blend-mode:screen" d="M33.4 21.43c-.045 3.244.385 5.517.961 5.077.576-.44 1.08-3.426 1.124-6.67.044-3.244-.386-5.517-.962-5.077-.576.44-1.08 3.426-1.124 6.67z" fill="url(#r)"/><path style="mix-blend-mode:screen" d="M34.443 20.888c-.407.53-.737.847-.738.708 0-.14.329-.684.736-1.214.407-.53.737-.846.737-.708 0 .14-.328.684-.735 1.214z" fill="url(#s)"/><path style="mix-blend-mode:screen" d="M34.488 20.573c.013 3.581.003 6.513-.022 6.545-.025.033-.057-2.843-.07-6.426-.013-3.58-.003-6.512.022-6.544.025-.033.057 2.843.07 6.425z" fill="url(#t)"/><path style="mix-blend-mode:screen" d="M34.47 21.622c-.1.695-.265.911-.37.482-.103-.43-.107-1.342-.007-2.038.1-.695.265-.911.37-.482.103.43.107 1.342.007 2.038z" fill="url(#u)"/><path style="mix-blend-mode:screen" d="M34.683 20.76c-.1.694-.265.91-.369.481-.104-.429-.107-1.342-.008-2.037.1-.695.266-.912.37-.482.104.429.107 1.342.007 2.037z" fill="url(#v)"/><path style="mix-blend-mode:screen" d="M34.712 21.749c-.1.695-.265.911-.37.482-.103-.43-.107-1.342-.007-2.038.1-.695.266-.911.37-.482.104.43.107 1.342.007 2.038z" fill="url(#w)"/><path style="mix-blend-mode:screen" d="M34.813 22.167c-.197 1.37-.523 1.796-.728.95-.205-.848-.212-2.645-.014-4.015.197-1.371.522-1.797.727-.95.205.847.212 2.644.015 4.015z" fill="url(#x)"/><path style="mix-blend-mode:screen" d="M7.313 14.04c-.579 1.1-.546 1.61.073 1.137.619-.473 1.59-1.749 2.168-2.85.58-1.1.547-1.61-.072-1.137-.62.472-1.59 1.748-2.17 2.85z" fill="url(#y)"/><path style="mix-blend-mode:screen" d="M7.394 13.209c-1.284 1.989-1.86 3.59-1.285 3.575.574-.014 2.08-1.638 3.365-3.627 1.284-1.99 1.86-3.59 1.285-3.576-.574.015-2.08 1.639-3.365 3.628z" fill="url(#z)"/><path style="mix-blend-mode:screen" d="M8.336 13.341c-.49.146-.845.194-.792.109.054-.087.496-.277.986-.423.49-.146.845-.194.792-.108-.054.087-.495.276-.986.422z" fill="url(#A)"/><path style="mix-blend-mode:screen" d="M8.49 13.166c-1.374 2.224-2.514 4.035-2.544 4.044-.03.009 1.058-1.786 2.433-4.01 1.374-2.224 2.513-4.036 2.543-4.045.03-.008-1.058 1.787-2.433 4.011z" fill="url(#B)"/><path style="mix-blend-mode:screen" d="M8.072 13.808c-.339.385-.539.445-.446.133.093-.313.443-.88.782-1.266.338-.385.538-.445.446-.133-.093.313-.443.88-.782 1.266z" fill="url(#C)"/><path style="mix-blend-mode:screen" d="M8.555 13.369c-.339.386-.539.446-.446.133.093-.312.443-.88.782-1.265.338-.386.538-.446.445-.133-.092.312-.442.88-.781 1.265z" fill="url(#D)"/><path style="mix-blend-mode:screen" d="M8.193 13.995c-.339.386-.539.445-.446.133.093-.312.443-.88.782-1.265.339-.386.538-.446.446-.133-.093.312-.443.879-.782 1.265z" fill="url(#E)"/><path style="mix-blend-mode:screen" d="M8.103 14.299c-.668.76-1.062.879-.878.262.183-.617.872-1.733 1.54-2.493.668-.76 1.061-.879.878-.262-.183.616-.873 1.732-1.54 2.493z" fill="url(#F)"/></g><defs><radialGradient id="A" cx="0" cy="0" r="1" gradientUnits="userSpaceOnUse" gradientTransform="rotate(121.707 .152 9.166) scale(.19624 .61874)"><stop stop-color="#fff"/><stop offset=".12" stop-color="#C5C5C5"/><stop offset=".25" stop-color="#919191"/><stop offset=".37" stop-color="#646464"/><stop offset=".5" stop-color="#404040"/><stop offset=".62" stop-color="#242424"/><stop offset=".75" stop-color="#101010"/><stop offset=".87" stop-color="#040404"/><stop offset="1"/></radialGradient><radialGradient id="d" cx="0" cy="0" r="1" gradientUnits="userSpaceOnUse" gradientTransform="rotate(-139.245 20.583 -1.093) scale(13.0474 93.3491)"><stop stop-color="#8521C2"/><stop offset="1" stop-color="#FF792D" stop-opacity="0"/></radialGradient><radialGradient id="f" cx="0" cy="0" r="1" gradientUnits="userSpaceOnUse" gradientTransform="rotate(-40.978 41.224 3.465) scale(32.0207 65.8711)"><stop stop-color="#FFE27B"/><stop offset=".272" stop-color="#EAB222"/><stop offset=".484" stop-color="#EEAE0D"/><stop offset=".656" stop-color="#FEE4A2"/><stop offset=".818" stop-color="#EEAE0D"/><stop offset="1" stop-color="#F90"/></radialGradient><radialGradient id="h" cx="0" cy="0" r="1" gradientUnits="userSpaceOnUse" gradientTransform="rotate(-64.605 28.134 8.251) scale(20.7249 33.3631)"><stop stop-color="#FFE27B"/><stop offset=".272" stop-color="#EAB222"/><stop offset=".484" stop-color="#EEAE0D"/><stop offset=".656" stop-color="#FEE4A2"/><stop offset=".818" stop-color="#EEAE0D"/><stop offset="1" stop-color="#F90"/></radialGradient><radialGradient id="i" cx="0" cy="0" r="1" gradientUnits="userSpaceOnUse" gradientTransform="matrix(8.88785 -18.72216 30.13855 14.30748 22.902 30.128)"><stop stop-color="#FFE27B"/><stop offset=".272" stop-color="#EAB222"/><stop offset=".484" stop-color="#EEAE0D"/><stop offset=".656" stop-color="#FEE4A2"/><stop offset=".818" stop-color="#EEAE0D"/><stop offset="1" stop-color="#F90"/></radialGradient><radialGradient id="n" cx="0" cy="0" r="1" gradientUnits="userSpaceOnUse" gradientTransform="matrix(7.59188 -1.86784 4.19773 17.0618 5.906 16.263)"><stop stop-color="#E79014"/><stop offset="1" stop-color="#FFE62D" stop-opacity="0"/></radialGradient><radialGradient id="q" cx="0" cy="0" r="1" gradientUnits="userSpaceOnUse" gradientTransform="matrix(.45449 1.87555 -1.10758 .2684 34.442 20.634)"><stop stop-color="#fff"/><stop offset=".04" stop-color="#D8D8D8"/><stop offset=".1" stop-color="#ABABAB"/><stop offset=".16" stop-color="#828282"/><stop offset=".23" stop-color="#5E5E5E"/><stop offset=".3" stop-color="#414141"/><stop offset=".38" stop-color="#292929"/><stop offset=".47" stop-color="#161616"/><stop offset=".58" stop-color="#090909"/><stop offset=".71" stop-color="#020202"/><stop offset="1"/></radialGradient><radialGradient id="r" cx="0" cy="0" r="1" gradientUnits="userSpaceOnUse" gradientTransform="rotate(76.378 4.106 32.209) scale(3.20356 1.89183)"><stop stop-color="#fff"/><stop offset=".04" stop-color="#D8D8D8"/><stop offset=".1" stop-color="#ABABAB"/><stop offset=".16" stop-color="#828282"/><stop offset=".23" stop-color="#5E5E5E"/><stop offset=".3" stop-color="#414141"/><stop offset=".38" stop-color="#292929"/><stop offset=".47" stop-color="#161616"/><stop offset=".58" stop-color="#090909"/><stop offset=".71" stop-color="#020202"/><stop offset="1"/></radialGradient><radialGradient id="s" cx="0" cy="0" r="1" gradientUnits="userSpaceOnUse" gradientTransform="matrix(.00099 .26884 -.74276 .00274 34.456 21.706)"><stop stop-color="#fff"/><stop offset=".12" stop-color="#C5C5C5"/><stop offset=".25" stop-color="#919191"/><stop offset=".37" stop-color="#646464"/><stop offset=".5" stop-color="#404040"/><stop offset=".62" stop-color="#242424"/><stop offset=".75" stop-color="#101010"/><stop offset=".87" stop-color="#040404"/><stop offset="1"/></radialGradient><radialGradient id="t" cx="0" cy="0" r="1" gradientUnits="userSpaceOnUse" gradientTransform="matrix(.04874 -.06361 3.1516 2.41473 34.947 20.008)"><stop stop-color="#fff"/><stop offset=".12" stop-color="#C5C5C5"/><stop offset=".25" stop-color="#919191"/><stop offset=".37" stop-color="#646464"/><stop offset=".5" stop-color="#404040"/><stop offset=".62" stop-color="#242424"/><stop offset=".75" stop-color="#101010"/><stop offset=".87" stop-color="#040404"/><stop offset="1"/></radialGradient><radialGradient id="u" cx="0" cy="0" r="1" gradientUnits="userSpaceOnUse" gradientTransform="matrix(.18847 .77778 -.45931 .1113 34.282 20.843)"><stop stop-color="#fff"/><stop offset=".04" stop-color="#D8D8D8"/><stop offset=".1" stop-color="#ABABAB"/><stop offset=".16" stop-color="#828282"/><stop offset=".23" stop-color="#5E5E5E"/><stop offset=".3" stop-color="#414141"/><stop offset=".38" stop-color="#292929"/><stop offset=".47" stop-color="#161616"/><stop offset=".58" stop-color="#090909"/><stop offset=".71" stop-color="#020202"/><stop offset="1"/></radialGradient><radialGradient id="v" cx="0" cy="0" r="1" gradientUnits="userSpaceOnUse" gradientTransform="matrix(.18847 .77778 -.45931 .1113 34.495 19.98)"><stop stop-color="#fff"/><stop offset=".04" stop-color="#D8D8D8"/><stop offset=".1" stop-color="#ABABAB"/><stop offset=".16" stop-color="#828282"/><stop offset=".23" stop-color="#5E5E5E"/><stop offset=".3" stop-color="#414141"/><stop offset=".38" stop-color="#292929"/><stop offset=".47" stop-color="#161616"/><stop offset=".58" stop-color="#090909"/><stop offset=".71" stop-color="#020202"/><stop offset="1"/></radialGradient><radialGradient id="w" cx="0" cy="0" r="1" gradientUnits="userSpaceOnUse" gradientTransform="matrix(.18847 .77778 -.45931 .1113 34.524 20.97)"><stop stop-color="#fff"/><stop offset=".04" stop-color="#D8D8D8"/><stop offset=".1" stop-color="#ABABAB"/><stop offset=".16" stop-color="#828282"/><stop offset=".23" stop-color="#5E5E5E"/><stop offset=".3" stop-color="#414141"/><stop offset=".38" stop-color="#292929"/><stop offset=".47" stop-color="#161616"/><stop offset=".58" stop-color="#090909"/><stop offset=".71" stop-color="#020202"/><stop offset="1"/></radialGradient><radialGradient id="x" cx="0" cy="0" r="1" gradientUnits="userSpaceOnUse" gradientTransform="rotate(76.378 4.105 32.21) scale(1.57655 .93102)"><stop stop-color="#fff"/><stop offset=".04" stop-color="#D8D8D8"/><stop offset=".1" stop-color="#ABABAB"/><stop offset=".16" stop-color="#828282"/><stop offset=".23" stop-color="#5E5E5E"/><stop offset=".3" stop-color="#414141"/><stop offset=".38" stop-color="#292929"/><stop offset=".47" stop-color="#161616"/><stop offset=".58" stop-color="#090909"/><stop offset=".71" stop-color="#020202"/><stop offset="1"/></radialGradient><radialGradient id="y" cx="0" cy="0" r="1" gradientUnits="userSpaceOnUse" gradientTransform="rotate(106.531 -.702 9.739) scale(1.42409 .93906)"><stop stop-color="#fff"/><stop offset=".04" stop-color="#D8D8D8"/><stop offset=".1" stop-color="#ABABAB"/><stop offset=".16" stop-color="#828282"/><stop offset=".23" stop-color="#5E5E5E"/><stop offset=".3" stop-color="#414141"/><stop offset=".38" stop-color="#292929"/><stop offset=".47" stop-color="#161616"/><stop offset=".58" stop-color="#090909"/><stop offset=".71" stop-color="#020202"/><stop offset="1"/></radialGradient><radialGradient id="z" cx="0" cy="0" r="1" gradientUnits="userSpaceOnUse" gradientTransform="rotate(106.531 -.702 9.739) scale(2.36402 1.55887)"><stop stop-color="#fff"/><stop offset=".04" stop-color="#D8D8D8"/><stop offset=".1" stop-color="#ABABAB"/><stop offset=".16" stop-color="#828282"/><stop offset=".23" stop-color="#5E5E5E"/><stop offset=".3" stop-color="#414141"/><stop offset=".38" stop-color="#292929"/><stop offset=".47" stop-color="#161616"/><stop offset=".58" stop-color="#090909"/><stop offset=".71" stop-color="#020202"/><stop offset="1"/></radialGradient><radialGradient id="e" cx="0" cy="0" r="1" gradientUnits="userSpaceOnUse" gradientTransform="matrix(24.17466 -25.71812 53.32944 50.12892 7.83 33.753)"><stop stop-color="#FFE27B"/><stop offset=".272" stop-color="#EAB222"/><stop offset=".484" stop-color="#EEAE0D"/><stop offset=".656" stop-color="#FFD66C"/><stop offset=".818" stop-color="#EEAE0D"/><stop offset="1" stop-color="#F90"/></radialGradient><radialGradient id="B" cx="0" cy="0" r="1" gradientUnits="userSpaceOnUse" gradientTransform="matrix(.0588 -.01756 .90208 3.02076 9.03 13.02)"><stop stop-color="#fff"/><stop offset=".12" stop-color="#C5C5C5"/><stop offset=".25" stop-color="#919191"/><stop offset=".37" stop-color="#646464"/><stop offset=".5" stop-color="#404040"/><stop offset=".62" stop-color="#242424"/><stop offset=".75" stop-color="#101010"/><stop offset=".87" stop-color="#040404"/><stop offset="1"/></radialGradient><radialGradient id="C" cx="0" cy="0" r="1" gradientUnits="userSpaceOnUse" gradientTransform="matrix(-.16804 .56615 -.37333 -.1108 8.24 13.241)"><stop stop-color="#fff"/><stop offset=".04" stop-color="#D8D8D8"/><stop offset=".1" stop-color="#ABABAB"/><stop offset=".16" stop-color="#828282"/><stop offset=".23" stop-color="#5E5E5E"/><stop offset=".3" stop-color="#414141"/><stop offset=".38" stop-color="#292929"/><stop offset=".47" stop-color="#161616"/><stop offset=".58" stop-color="#090909"/><stop offset=".71" stop-color="#020202"/><stop offset="1"/></radialGradient><radialGradient id="D" cx="0" cy="0" r="1" gradientUnits="userSpaceOnUse" gradientTransform="matrix(-.16804 .56615 -.37333 -.1108 8.724 12.802)"><stop stop-color="#fff"/><stop offset=".04" stop-color="#D8D8D8"/><stop offset=".1" stop-color="#ABABAB"/><stop offset=".16" stop-color="#828282"/><stop offset=".23" stop-color="#5E5E5E"/><stop offset=".3" stop-color="#414141"/><stop offset=".38" stop-color="#292929"/><stop offset=".47" stop-color="#161616"/><stop offset=".58" stop-color="#090909"/><stop offset=".71" stop-color="#020202"/><stop offset="1"/></radialGradient><radialGradient id="E" cx="0" cy="0" r="1" gradientUnits="userSpaceOnUse" gradientTransform="matrix(-.16804 .56615 -.37333 -.1108 8.362 13.428)"><stop stop-color="#fff"/><stop offset=".04" stop-color="#D8D8D8"/><stop offset=".1" stop-color="#ABABAB"/><stop offset=".16" stop-color="#828282"/><stop offset=".23" stop-color="#5E5E5E"/><stop offset=".3" stop-color="#414141"/><stop offset=".38" stop-color="#292929"/><stop offset=".47" stop-color="#161616"/><stop offset=".58" stop-color="#090909"/><stop offset=".71" stop-color="#020202"/><stop offset="1"/></radialGradient><radialGradient id="F" cx="0" cy="0" r="1" gradientUnits="userSpaceOnUse" gradientTransform="rotate(106.531 -.702 9.739) scale(1.16339 .76716)"><stop stop-color="#fff"/><stop offset=".04" stop-color="#D8D8D8"/><stop offset=".1" stop-color="#ABABAB"/><stop offset=".16" stop-color="#828282"/><stop offset=".23" stop-color="#5E5E5E"/><stop offset=".3" stop-color="#414141"/><stop offset=".38" stop-color="#292929"/><stop offset=".47" stop-color="#161616"/><stop offset=".58" stop-color="#090909"/><stop offset=".71" stop-color="#020202"/><stop offset="1"/></radialGradient><linearGradient id="b" x1="8.936" y1="4.27" x2="31.81" y2="-2.317" gradientUnits="userSpaceOnUse"><stop stop-color="#FFD970"/><stop offset=".127" stop-color="#EFB015"/><stop offset=".33" stop-color="#EEAE28"/><stop offset=".456" stop-color="#ECA824"/><stop offset=".856" stop-color="#E79519"/><stop offset="1" stop-color="#E27F00"/></linearGradient><linearGradient id="p" x1="27.722" y1="8.055" x2="27.791" y2="5.568" gradientUnits="userSpaceOnUse"><stop stop-color="#600EA0"/><stop offset="1" stop-color="#FFDCA7" stop-opacity="0"/></linearGradient><linearGradient id="o" x1="15.246" y1="36.42" x2="14.867" y2="29.218" gradientUnits="userSpaceOnUse"><stop stop-color="#611A9A"/><stop offset="1" stop-color="#F1B151" stop-opacity="0"/></linearGradient><linearGradient id="l" x1="19.079" y1="31.139" x2="24.128" y2="8.763" gradientUnits="userSpaceOnUse"><stop stop-color="#FFB800"/><stop offset=".539" stop-color="#FEDF75"/><stop offset="1" stop-color="#FC0"/></linearGradient><linearGradient id="j" x1="19.079" y1="31.139" x2="24.128" y2="8.763" gradientUnits="userSpaceOnUse"><stop stop-color="#FFB800"/><stop offset=".539" stop-color="#FEDF75"/><stop offset="1" stop-color="#FC0"/></linearGradient><linearGradient id="g" x1="7.722" y1="24.379" x2="31.634" y2="30.076" gradientUnits="userSpaceOnUse"><stop stop-color="#DF8102"/><stop offset=".099" stop-color="#ED941D"/><stop offset=".307" stop-color="#F0A32F"/><stop offset=".755" stop-color="#FFD960"/><stop offset="1" stop-color="#FFDD42"/></linearGradient><linearGradient id="c" x1="7.637" y1="6.534" x2="12.901" y2="1.313" gradientUnits="userSpaceOnUse"><stop stop-color="#611A9A"/><stop offset="1" stop-color="#F1B151" stop-opacity="0"/></linearGradient><filter id="k" x="7.087" y="18.459" width="26.611" height="13.779" filterUnits="userSpaceOnUse" color-interpolation-filters="sRGB"><feFlood flood-opacity="0" result="BackgroundImageFix"/><feBlend in="SourceGraphic" in2="BackgroundImageFix" result="shape"/><feGaussianBlur stdDeviation=".064" result="effect1_foregroundBlur_4319_31514"/></filter><filter id="m" x="7.183" y="7.465" width="11.216" height="24.518" filterUnits="userSpaceOnUse" color-interpolation-filters="sRGB"><feFlood flood-opacity="0" result="BackgroundImageFix"/><feBlend in="SourceGraphic" in2="BackgroundImageFix" result="shape"/><feGaussianBlur stdDeviation=".016" result="effect1_foregroundBlur_4319_31514"/></filter><clipPath id="a"><path fill="#fff" transform="translate(.5)" d="M0 0h40v40H0z"/></clipPath></defs></svg>